<svg xmlns="http://www.w3.org/2000/svg" viewBox="0 0 30 30"><path d="M15-.4C6.5-.4-.4 6.5-.4 15S6.5 30.4 15 30.4 30.4 23.5 30.4 15c0-4.1-1.6-8-4.5-10.9C23 1.2 19.1-.4 15-.4zM21.5 3l-3.4 3.4c-1-.3-2-.5-3-.5s-2 .2-2.9.5L8.7 3c4-2.1 8.8-2.1 12.8 0zM10.2 19.7C7.4 17 7.3 12.6 10 9.8c2.8-2.8 7.2-2.8 9.9-.1 2.8 2.7 2.8 7.1.1 9.9-1.3 1.3-3.1 2.1-5 2.1-1.8 0-3.5-.7-4.8-2zM3.4 8l3.5 3.5c-.8 2-.8 4.2-.1 6.2L3 21.5C.8 17.3.9 12.1 3.4 8zm4.7 18.8l3.8-3.8c1 .4 2.1.6 3.2.6s2.2-.2 3.3-.6l3.7 3.7c-4.4 2.5-9.7 2.6-14 .1zM27 21.3l-3.6-3.6c.7-2 .7-4.2-.1-6.1l3.4-3.4c2.4 4 2.5 9 .3 13.1z" fill="#fff"/></svg>