<svg version="1.1" id="Layer_1" xmlns="http://www.w3.org/2000/svg" x="0" y="0" viewBox="0 0 30 30" xml:space="preserve"><path class="st0" d="M21.3 3.7H20V1.2c0-.6-.6-1.2-1.2-1.2h-7.5c-.7 0-1.3.6-1.3 1.2v2.5H8.8c-1.4 0-2.5 1.1-2.5 2.5v21.3c0 1.4 1.1 2.5 2.5 2.5h12.5c1.4 0 2.5-1.1 2.5-2.5V6.2c0-1.3-1.2-2.5-2.5-2.5zm-8.8-1.2h5v1.3h-5V2.5zm8.8 25H8.8V6.2h12.5v21.3z"/><path class="st0" d="M17.8 15h-2.7l3.7-5.6L16.7 8l-5 7.5c-.4.6-.2 1.4.4 1.7.2.1.4.2.6.2h2.7L11.7 23l2.1 1.4 5-7.5c.4-.6.2-1.4-.4-1.7-.1-.1-.3-.2-.6-.2z"/></svg>