<svg version="1.1" id="Layer_1" xmlns="http://www.w3.org/2000/svg" x="0" y="0" viewBox="0 0 30 30" xml:space="preserve"><style>.st0{fill:#fff}</style><path class="st0" d="M26.8 15.7h-.9c-.6-1.8-1.8-3.4-3.3-4.6v-.2c-.2-1 0-2 .5-2.9.2-.3.1-.8-.2-1h-.5c-1.1.1-2.1.5-3 1.2-.4.4-.8.9-.9 1.5-1.3 5-6.5 8-11.4 6.6-1.2-.3-2.3-.8-3.2-1.6-.6 1.2-.9 2.5-.9 3.8 0 .7.1 1.4.3 2.1.2.7.4 1.4.8 2 .5 1.1 1.2 2.1 2 2.9.9 1 1.5 2.2 1.5 3.5v.3c0 .3.3.6.7.6h4c.4 0 .7-.3.7-.6v-1c.6.1 1.2.1 1.8.1.5 0 .9 0 1.4-.1v.9c0 .4.3.7.6.7h4c.4 0 .7-.3.7-.6v-1c.1-1.1.6-2 1.4-2.7l.1-.1c1.4-1.2 2.4-2.7 3-4.4h.8c.7 0 1.2-.5 1.3-1.1v-3c-.1-.8-.7-1.3-1.3-1.3zm-5 .2c-.6 0-1-.4-1-1s.4-1 1-1 1 .4 1 1-.4 1.1-1 1c0 .1 0 .1 0 0z"/><path class="st0" d="M9 14c3.9 0 7-3.1 7-7s-3.1-7-7-7-7 3.1-7 7 3.1 7 7 7zm1.6-6.5l-.1.1-.1.1H8.5l-.1.8c0 .2-.1.4-.1.6-.1.1-.2.3-.3.4l.5-.1h3.1l-.2.6c0 .1 0 .2-.1.2 0 .1-.1.1-.2.2l-.2.2c-.1 0-.2.1-.3.1H6l.1-.9c.2 0 .4-.1.5-.3.1-.2.2-.4.2-.6L7 7.7h-.7l.1-.6V7l.1-.1.1-.1h.5l.1-1.1c0-.3.1-.6.3-.9.1-.2.3-.5.5-.7.2-.2.5-.4.8-.5.4-.2.8-.2 1.2-.3.3 0 .5 0 .8.1l.6.3c.2.1.3.3.4.4.1.2.2.4.3.5l-.6.4c-.1.1-.3.1-.4.1-.1 0-.2-.1-.3-.2l-.2-.2-.2-.1c-.1 0-.1-.1-.2-.1h-.4c-.3 0-.5.1-.7.3-.2.3-.3.6-.3.9l-.2 1.1h2.1l-.1.6c.1 0 0 .1 0 .1z"/></svg>