<?xml version="1.0" encoding="utf-8"?>
<!-- Generator: Adobe Illustrator 23.1.0, SVG Export Plug-In . SVG Version: 6.00 Build 0)  -->
<svg version="1.1" id="Layer_1" xmlns="http://www.w3.org/2000/svg" xmlns:xlink="http://www.w3.org/1999/xlink" x="0px" y="0px"
	 viewBox="0 0 30 30" style="enable-background:new 0 0 30 30;" xml:space="preserve">

<title>lmcu_website_icon_home-loan_white</title>
<g>
	<path class="st0" d="M29.5,11.8L27,9.6V4c0-0.6-0.4-1-1-1h-3c-0.6,0-1,0.4-1,1v1.3l-5.6-4.8c-0.8-0.7-2-0.7-2.8,0L0.5,11.8
		c-0.6,0.5-0.5,0.9-0.4,1.1c0.2,0.3,0.6,0.5,1,0.5h0.3H2V30h26V13.4h0.7H29c0.4,0,0.8-0.2,1-0.5C30,12.7,30.1,12.2,29.5,11.8z M8,26
		H5v-2.9C5,23,5,23,5.1,23H8V26z M8,21H5v-2.9C5,18,5,18,5.1,18H8V21z M13,26h-3v-2.9c0,0,0-0.1,0.1-0.1H13V26z M13,21h-3v-2.9
		c0,0,0-0.1,0.1-0.1H13V21z"/>
</g>
</svg>
