<?xml version="1.0" encoding="utf-8"?>
<!-- Generator: Adobe Illustrator 23.1.0, SVG Export Plug-In . SVG Version: 6.00 Build 0)  -->
<svg version="1.1" id="Layer_1" xmlns="http://www.w3.org/2000/svg" xmlns:xlink="http://www.w3.org/1999/xlink" x="0px" y="0px"
	 viewBox="0 0 30 30" style="enable-background:new 0 0 30 30;" xml:space="preserve">
<title>lmcu_website_icon_booster_white</title>
<g>
	<path class="st0" d="M21.3,3.7H20V1.2C20,0.6,19.4,0,18.8,0h-7.5C10.6,0,10,0.6,10,1.2v2.5H8.8c-1.4,0-2.5,1.1-2.5,2.5v21.3
		c0,1.4,1.1,2.5,2.5,2.5h12.5c1.4,0,2.5-1.1,2.5-2.5V6.2C23.8,4.9,22.6,3.7,21.3,3.7z M12.5,2.5h5v1.3h-5V2.5z M21.3,27.5H8.8V6.2
		h12.5V27.5z"/>
	<path class="st0" d="M17.8,15h-2.7l3.7-5.6l-2.1-1.4l-5,7.5c-0.4,0.6-0.2,1.4,0.4,1.7c0.2,0.1,0.4,0.2,0.6,0.2h2.7l-3.7,5.6
		l2.1,1.4l5-7.5c0.4-0.6,0.2-1.4-0.4-1.7C18.3,15.1,18.1,15,17.8,15z"/>
</g>
</svg>
