<svg version="1.1" id="hospital-icon" xmlns="http://www.w3.org/2000/svg" xmlns:xlink="http://www.w3.org/1999/xlink"
	 viewBox="0 0 30 30" xml:space="preserve">

<path class="st0" d="M26.5,6.7c-0.2-0.2-0.5-0.3-0.8-0.3h-5.4V1.6c0-0.9-0.7-1.6-1.6-1.6c0,0,0,0,0,0h-7.5c-0.9,0-1.6,0.7-1.6,1.6
	c0,0,0,0,0,0v4.8H4.3C4,6.4,3.7,6.5,3.5,6.7C3.3,6.9,3.2,7.2,3.2,7.5v21.4c0,0.3,0.1,0.6,0.3,0.8C3.7,29.9,4,30,4.3,30h21.4
	c0.3,0,0.6-0.1,0.8-0.3c0.2-0.2,0.3-0.5,0.3-0.8V7.5C26.8,7.2,26.7,6.9,26.5,6.7z M11.8,2.7c0-0.2,0.1-0.3,0.2-0.4
	c0.1-0.1,0.2-0.2,0.4-0.2h1.1c0.1,0,0.3,0.1,0.4,0.2C13.9,2.4,14,2.5,14,2.7v1.6h2.1V2.7c0-0.1,0.1-0.3,0.2-0.4
	c0.1-0.1,0.2-0.2,0.4-0.2h1.1c0.1,0,0.3,0.1,0.4,0.2c0.1,0.1,0.2,0.2,0.2,0.4V8c0,0.1-0.1,0.3-0.2,0.4c-0.1,0.1-0.2,0.2-0.4,0.2
	h-1.1c-0.1,0-0.3-0.1-0.4-0.2c-0.1-0.1-0.2-0.2-0.2-0.4V6.4h-2.1V8c0,0.1-0.1,0.3-0.2,0.4c-0.1,0.1-0.2,0.2-0.4,0.2h-1.1
	c-0.3,0-0.5-0.2-0.5-0.5V2.7z M24.6,27.9h-6.4v-3.8c0-0.1-0.1-0.3-0.2-0.4c-0.1-0.1-0.2-0.2-0.4-0.2h-5.4c-0.1,0-0.3,0.1-0.4,0.2
	c-0.1,0.1-0.2,0.2-0.2,0.4v3.8H5.4V8.6h4.3v0.5c0,0.4,0.2,0.8,0.5,1.1c0.3,0.3,0.7,0.5,1.1,0.5h7.5c0.4,0,0.8-0.2,1.1-0.5
	c0.3-0.3,0.5-0.7,0.5-1.1V8.6h4.3V27.9z"/>
<path class="st0" d="M9.1,21.4H8c-0.1,0-0.3,0.1-0.4,0.2c-0.1,0.1-0.2,0.2-0.2,0.4v1c0,0.1,0.1,0.3,0.2,0.4c0.1,0.1,0.2,0.2,0.4,0.2
	h1.1c0.3,0,0.5-0.2,0.5-0.5v-1C9.6,21.7,9.4,21.5,9.1,21.4L9.1,21.4z"/>
<path class="st0" d="M9.1,17.1H8c-0.1,0-0.3,0.1-0.4,0.2c-0.1,0.1-0.2,0.2-0.2,0.4v1.1c0,0.1,0.1,0.3,0.2,0.4
	c0.1,0.1,0.2,0.2,0.4,0.2h1.1c0.1,0,0.3-0.1,0.4-0.2c0.1-0.1,0.2-0.2,0.2-0.4v-1.1c0-0.1-0.1-0.3-0.2-0.4
	C9.4,17.2,9.2,17.2,9.1,17.1z"/>
<path class="st0" d="M13.4,17.1h-1.1c-0.1,0-0.3,0.1-0.4,0.2c-0.1,0.1-0.2,0.2-0.2,0.4v1.1c0,0.1,0.1,0.3,0.2,0.4
	c0.1,0.1,0.2,0.2,0.4,0.2h1.1c0.1,0,0.3-0.1,0.4-0.2c0.1-0.1,0.2-0.2,0.2-0.4v-1.1c0-0.1-0.1-0.3-0.2-0.4
	C13.7,17.2,13.5,17.1,13.4,17.1z"/>
<path class="st0" d="M9.1,12.9H8c-0.1,0-0.3,0.1-0.4,0.2c-0.1,0.1-0.2,0.2-0.2,0.4v1.1C7.5,14.8,7.7,15,8,15h1.1
	c0.1,0,0.3-0.1,0.4-0.2c0.1-0.1,0.2-0.2,0.2-0.4v-1.1C9.6,13.1,9.4,12.9,9.1,12.9L9.1,12.9z"/>
<path class="st0" d="M22,21.4h-1.1c-0.3,0-0.5,0.2-0.5,0.5v1c0,0.3,0.2,0.5,0.5,0.5H22c0.1,0,0.3-0.1,0.4-0.2
	c0.1-0.1,0.1-0.2,0.1-0.4v-1c0-0.1-0.1-0.3-0.2-0.4C22.3,21.5,22.1,21.4,22,21.4z"/>
<path class="st0" d="M17.7,17.1h-1.1c-0.1,0-0.3,0.1-0.4,0.2c-0.1,0.1-0.2,0.2-0.2,0.4v1.1c0,0.1,0.1,0.3,0.2,0.4
	c0.1,0.1,0.2,0.2,0.4,0.2h1.1c0.1,0,0.3-0.1,0.4-0.2c0.1-0.1,0.2-0.2,0.2-0.4v-1.1c0-0.1-0.1-0.3-0.2-0.4
	C18,17.2,17.8,17.1,17.7,17.1z"/>
<path class="st0" d="M13.4,12.9h-1.1c-0.1,0-0.3,0.1-0.4,0.2c-0.1,0.1-0.2,0.2-0.2,0.4v1.1c0,0.1,0.1,0.3,0.2,0.4
	c0.1,0.1,0.2,0.2,0.4,0.2h1.1c0.3,0,0.5-0.2,0.5-0.5v-1.1c0-0.1-0.1-0.3-0.2-0.4C13.7,12.9,13.5,12.9,13.4,12.9z"/>
<path class="st0" d="M22,17.1h-1.1c-0.1,0-0.3,0.1-0.4,0.2c-0.1,0.1-0.2,0.2-0.2,0.4v1.1c0,0.1,0.1,0.3,0.2,0.4
	c0.1,0.1,0.2,0.2,0.4,0.2H22c0.1,0,0.3-0.1,0.4-0.2c0.1-0.1,0.2-0.2,0.2-0.4v-1.1c0-0.1-0.1-0.3-0.2-0.4
	C22.3,17.2,22.1,17.1,22,17.1z"/>
<path class="st0" d="M17.7,12.9h-1.1c-0.1,0-0.3,0.1-0.4,0.2c-0.1,0.1-0.2,0.2-0.2,0.4v1.1c0,0.3,0.2,0.5,0.5,0.5h1.1
	c0.1,0,0.3-0.1,0.4-0.2c0.1-0.1,0.2-0.2,0.2-0.4v-1.1c0-0.1-0.1-0.3-0.2-0.4C18,12.9,17.8,12.9,17.7,12.9z"/>
<path class="st0" d="M20.4,14.5c0,0.1,0.1,0.3,0.2,0.4c0.1,0.1,0.2,0.2,0.4,0.2H22c0.3,0,0.5-0.2,0.5-0.5v-1.1
	c0-0.1-0.1-0.3-0.2-0.4c-0.1-0.1-0.2-0.2-0.4-0.2h-1.1c-0.3,0-0.5,0.2-0.5,0.5V14.5z"/>
</svg>
