<?xml version="1.0" encoding="utf-8"?>
<!-- Generator: Adobe Illustrator 23.1.0, SVG Export Plug-In . SVG Version: 6.00 Build 0)  -->
<svg version="1.1" id="Layer_1" xmlns="http://www.w3.org/2000/svg" xmlns:xlink="http://www.w3.org/1999/xlink" x="0px" y="0px"
	 viewBox="0 0 30 30" style="enable-background:new 0 0 30 30;" xml:space="preserve">
<style type="text/css">
	.st0{fill:#FFFFFF;}
</style>
<title>lmcu_website_icon_savings_white</title>
<g>
	<path class="st0" d="M26.8,15.7h-0.9c-0.6-1.8-1.8-3.4-3.3-4.6c0-0.1,0-0.1,0-0.2c-0.2-1,0-2,0.5-2.9c0.2-0.3,0.1-0.8-0.2-1
		C22.8,7,22.6,7,22.4,7c-1.1,0.1-2.1,0.5-3,1.2c-0.4,0.4-0.8,0.9-0.9,1.5c-1.3,5-6.5,8-11.4,6.6c-1.2-0.3-2.3-0.8-3.2-1.6
		C3.3,15.9,3,17.2,3,18.5c0,0.7,0.1,1.4,0.3,2.1l0,0c0.2,0.7,0.4,1.4,0.8,2c0.5,1.1,1.2,2.1,2,2.9c0.9,1,1.5,2.2,1.5,3.5v0.3l0,0
		c0,0.3,0.3,0.6,0.7,0.6h4c0.4,0,0.7-0.3,0.7-0.6c0,0,0,0,0,0v-1c0.6,0.1,1.2,0.1,1.8,0.1c0.5,0,0.9,0,1.4-0.1v0.9
		c0,0.4,0.3,0.7,0.6,0.7c0,0,0,0,0,0h4c0.4,0,0.7-0.3,0.7-0.6c0,0,0,0,0,0v-1c0.1-1.1,0.6-2,1.4-2.7l0.1-0.1l0,0
		c1.4-1.2,2.4-2.7,3-4.4h0.8c0.7,0,1.2-0.5,1.3-1.1c0,0,0,0,0,0v-3C28,16.2,27.4,15.7,26.8,15.7z M21.8,15.9c-0.6,0-1-0.4-1-1
		s0.4-1,1-1s1,0.4,1,1C22.8,15.5,22.4,16,21.8,15.9C21.8,16,21.8,16,21.8,15.9L21.8,15.9z"/>
	<path class="st0" d="M9,14c3.9,0,7-3.1,7-7s-3.1-7-7-7S2,3.1,2,7S5.1,14,9,14z M10.6,7.5c0,0-0.1,0.1-0.1,0.1c0,0-0.1,0.1-0.1,0.1
		c-0.1,0-0.1,0-0.2,0H8.5L8.4,8.5c0,0.2-0.1,0.4-0.1,0.6C8.2,9.2,8.1,9.4,8,9.5l0.5-0.1c0.2,0,0.3,0,0.5,0h2.6L11.4,10
		c0,0.1,0,0.2-0.1,0.2c0,0.1-0.1,0.1-0.2,0.2c-0.1,0.1-0.1,0.1-0.2,0.2c-0.1,0-0.2,0.1-0.3,0.1H6l0.1-0.9c0.2,0,0.4-0.1,0.5-0.3
		c0.1-0.2,0.2-0.4,0.2-0.6L7,7.7H6.3l0.1-0.6c0,0,0-0.1,0-0.1c0,0,0.1-0.1,0.1-0.1c0,0,0.1-0.1,0.1-0.1c0.1,0,0.1,0,0.2,0h0.3
		l0.1-1.1c0-0.3,0.1-0.6,0.3-0.9C7.6,4.6,7.8,4.3,8,4.1c0.2-0.2,0.5-0.4,0.8-0.5C9.2,3.4,9.6,3.4,10,3.3c0.3,0,0.5,0,0.8,0.1
		c0.2,0.1,0.4,0.2,0.6,0.3c0.2,0.1,0.3,0.3,0.4,0.4c0.1,0.2,0.2,0.4,0.3,0.5l-0.6,0.4c-0.1,0.1-0.3,0.1-0.4,0.1
		c-0.1,0-0.2-0.1-0.3-0.2l-0.2-0.2l-0.2-0.1c-0.1,0-0.1-0.1-0.2-0.1H9.8c-0.3,0-0.5,0.1-0.7,0.3C8.9,5.1,8.8,5.4,8.8,5.7L8.6,6.8
		h2.1l-0.1,0.6C10.7,7.4,10.6,7.5,10.6,7.5z"/>
</g>
</svg>
