<?xml version="1.0" encoding="utf-8"?>
<!-- Generator: Adobe Illustrator 23.1.0, SVG Export Plug-In . SVG Version: 6.00 Build 0)  -->
<svg version="1.1" id="Layer_1" xmlns="http://www.w3.org/2000/svg" xmlns:xlink="http://www.w3.org/1999/xlink" x="0px" y="0px"
	 viewBox="0 0 30 30" style="enable-background:new 0 0 30 30;" xml:space="preserve">
<style type="text/css">
	.st0{fill:#FFFFFF;}
</style>
<title>lmcu_website_icon_percent_white</title>
<g>
	<path class="st0" d="M24,18c-3.3,0-6,2.7-6,6s2.7,6,6,6s6-2.7,6-6S27.3,18,24,18z M24,27c-1.7,0-3-1.3-3-3s1.3-3,3-3s3,1.3,3,3
		S25.7,27,24,27z"/>
	<rect x="-3.5" y="13.5" transform="matrix(0.7071 -0.7071 0.7071 0.7071 -6.0636 15.354)" class="st0" width="38" height="3"/>
	<path class="st0" d="M6,12c3.3,0,6-2.7,6-6S9.3,0,6,0S0,2.7,0,6S2.7,12,6,12z M6,3c1.7,0,3,1.3,3,3c0,1.7-1.3,3-3,3
		C4.3,9,3,7.7,3,6C3,4.3,4.3,3,6,3z"/>
</g>
</svg>
