<?xml version="1.0" encoding="utf-8"?>
<!-- Generator: Adobe Illustrator 23.1.0, SVG Export Plug-In . SVG Version: 6.00 Build 0)  -->
<svg version="1.1" id="Layer_1" xmlns="http://www.w3.org/2000/svg" xmlns:xlink="http://www.w3.org/1999/xlink" x="0px" y="0px"
	 viewBox="0 0 30 30" style="enable-background:new 0 0 30 30;" xml:space="preserve">
<style type="text/css">
	.st0{fill:#FFFFFF;}
</style>
<title>lmcu_website_icon_liferaft_white</title>
<path class="st0" d="M15-0.4C6.5-0.4-0.4,6.5-0.4,15c0,8.5,6.9,15.4,15.4,15.4c8.5,0,15.4-6.9,15.4-15.4c0-4.1-1.6-8-4.5-10.9
	C23,1.2,19.1-0.4,15-0.4z M21.5,3l-3.4,3.4c-1-0.3-2-0.5-3-0.5c-1,0-2,0.2-2.9,0.5L8.7,3C12.7,0.9,17.5,0.9,21.5,3L21.5,3z
	 M10.2,19.7C7.4,17,7.3,12.6,10,9.8C12.8,7,17.2,7,19.9,9.7c2.8,2.7,2.8,7.1,0.1,9.9c-1.3,1.3-3.1,2.1-5,2.1
	C13.2,21.7,11.5,21,10.2,19.7z M3.4,8l3.5,3.5c-0.8,2-0.8,4.2-0.1,6.2L3,21.5C0.8,17.3,0.9,12.1,3.4,8z M8.1,26.8l3.8-3.8
	c1,0.4,2.1,0.6,3.2,0.6c1.1,0,2.2-0.2,3.3-0.6l3.7,3.7C17.7,29.2,12.4,29.3,8.1,26.8L8.1,26.8z M27,21.3l-3.6-3.6
	c0.7-2,0.7-4.2-0.1-6.1l3.4-3.4C29.1,12.2,29.2,17.2,27,21.3z"/>
</svg>
